<svg width="66" height="13" viewBox="0 0 66 13" fill="none" xmlns="http://www.w3.org/2000/svg">
<path d="M5.424 12.16C3.99467 12.16 2.90667 11.776 2.16 11.008C1.424 10.24 1.02933 9.17867 0.976 7.824C0.965333 7.536 0.96 7.06667 0.96 6.416C0.96 5.75467 0.965333 5.27467 0.976 4.976C1.02933 3.632 1.42933 2.576 2.176 1.808C2.92267 1.02933 4.00533 0.639999 5.424 0.639999C6.37333 0.639999 7.17867 0.810666 7.84 1.152C8.50133 1.48267 9.00267 1.92 9.344 2.464C9.68533 3.008 9.872 3.58933 9.904 4.208V4.24C9.904 4.32533 9.86667 4.4 9.792 4.464C9.728 4.51733 9.65333 4.544 9.568 4.544H8.688C8.47467 4.544 8.34133 4.42133 8.288 4.176C8.10667 3.376 7.78133 2.816 7.312 2.496C6.84267 2.16533 6.21333 2 5.424 2C3.58933 2 2.64 3.01867 2.576 5.056C2.56533 5.344 2.56 5.78667 2.56 6.384C2.56 6.98133 2.56533 7.43467 2.576 7.744C2.64 9.78133 3.58933 10.8 5.424 10.8C6.21333 10.8 6.84267 10.64 7.312 10.32C7.792 9.98933 8.11733 9.424 8.288 8.624C8.32 8.48533 8.368 8.38933 8.432 8.336C8.496 8.28267 8.58133 8.256 8.688 8.256H9.568C9.664 8.256 9.744 8.288 9.808 8.352C9.88267 8.40533 9.91467 8.48 9.904 8.576C9.872 9.20533 9.68533 9.792 9.344 10.336C9.00267 10.88 8.50133 11.3227 7.84 11.664C7.17867 11.9947 6.37333 12.16 5.424 12.16ZM15.0833 12.16C13.9099 12.16 12.9979 11.8293 12.3473 11.168C11.7073 10.5067 11.3659 9.62667 11.3233 8.528L11.3073 7.84L11.3233 7.152C11.3659 6.064 11.7126 5.18933 12.3633 4.528C13.0139 3.856 13.9206 3.52 15.0833 3.52C16.2459 3.52 17.1526 3.856 17.8033 4.528C18.4539 5.18933 18.8006 6.064 18.8433 7.152C18.8539 7.26933 18.8593 7.49867 18.8593 7.84C18.8593 8.18133 18.8539 8.41067 18.8433 8.528C18.8006 9.62667 18.4539 10.5067 17.8033 11.168C17.1633 11.8293 16.2566 12.16 15.0833 12.16ZM15.0833 10.928C15.7553 10.928 16.2833 10.7147 16.6673 10.288C17.0619 9.86133 17.2753 9.248 17.3073 8.448C17.3179 8.34133 17.3233 8.13867 17.3233 7.84C17.3233 7.54133 17.3179 7.33867 17.3073 7.232C17.2753 6.432 17.0619 5.81867 16.6673 5.392C16.2833 4.96533 15.7553 4.752 15.0833 4.752C14.4113 4.752 13.8779 4.96533 13.4833 5.392C13.0886 5.81867 12.8806 6.432 12.8593 7.232L12.8433 7.84L12.8593 8.448C12.8806 9.248 13.0886 9.86133 13.4833 10.288C13.8779 10.7147 14.4113 10.928 15.0833 10.928ZM21.0658 12C20.9591 12 20.8684 11.968 20.7938 11.904C20.7298 11.8293 20.6978 11.7387 20.6978 11.632V4.048C20.6978 3.94133 20.7298 3.856 20.7938 3.792C20.8684 3.71733 20.9591 3.68 21.0658 3.68H21.8178C21.9244 3.68 22.0098 3.71733 22.0738 3.792C22.1484 3.856 22.1858 3.94133 22.1858 4.048V4.752C22.4951 4.35733 22.8578 4.05333 23.2738 3.84C23.7004 3.62667 24.2284 3.52 24.8578 3.52C25.8818 3.52 26.6764 3.85067 27.2418 4.512C27.8178 5.16267 28.1058 6.032 28.1058 7.12V11.632C28.1058 11.7387 28.0684 11.8293 27.9938 11.904C27.9298 11.968 27.8444 12 27.7378 12H26.9378C26.8311 12 26.7404 11.968 26.6658 11.904C26.6018 11.8293 26.5698 11.7387 26.5698 11.632V7.2C26.5698 6.44267 26.3831 5.856 26.0098 5.44C25.6471 5.024 25.1191 4.816 24.4258 4.816C23.7538 4.816 23.2204 5.02933 22.8258 5.456C22.4311 5.872 22.2338 6.45333 22.2338 7.2V11.632C22.2338 11.7387 22.1964 11.8293 22.1218 11.904C22.0578 11.968 21.9724 12 21.8658 12H21.0658ZM33.3745 12C31.6892 12 30.8465 11.0613 30.8465 9.184V4.96H29.5985C29.4918 4.96 29.4012 4.928 29.3265 4.864C29.2625 4.78933 29.2305 4.69867 29.2305 4.592V4.048C29.2305 3.94133 29.2625 3.856 29.3265 3.792C29.4012 3.71733 29.4918 3.68 29.5985 3.68H30.8465V1.008C30.8465 0.901333 30.8785 0.816 30.9425 0.752C31.0172 0.677333 31.1078 0.639999 31.2145 0.639999H31.9665C32.0732 0.639999 32.1585 0.677333 32.2225 0.752C32.2972 0.816 32.3345 0.901333 32.3345 1.008V3.68H34.3185C34.4252 3.68 34.5105 3.71733 34.5745 3.792C34.6492 3.856 34.6865 3.94133 34.6865 4.048V4.592C34.6865 4.69867 34.6492 4.78933 34.5745 4.864C34.5105 4.928 34.4252 4.96 34.3185 4.96H32.3345V9.072C32.3345 9.60533 32.4252 10.0107 32.6065 10.288C32.7878 10.5547 33.0865 10.688 33.5025 10.688H34.4785C34.5852 10.688 34.6705 10.7253 34.7345 10.8C34.8092 10.864 34.8465 10.9493 34.8465 11.056V11.632C34.8465 11.7387 34.8092 11.8293 34.7345 11.904C34.6705 11.968 34.5852 12 34.4785 12H33.3745ZM38.5315 12.16C38.0088 12.16 37.5235 12.0533 37.0755 11.84C36.6275 11.6267 36.2702 11.3387 36.0035 10.976C35.7475 10.6027 35.6195 10.192 35.6195 9.744C35.6195 9.04 35.9075 8.464 36.4835 8.016C37.0702 7.55733 37.8595 7.25867 38.8515 7.12L41.2355 6.784V6.32C41.2355 5.232 40.6115 4.688 39.3635 4.688C38.8942 4.688 38.5102 4.78933 38.2115 4.992C37.9128 5.184 37.6888 5.41333 37.5395 5.68C37.5075 5.776 37.4648 5.84533 37.4115 5.888C37.3688 5.93067 37.3048 5.952 37.2195 5.952H36.5315C36.4355 5.952 36.3502 5.92 36.2755 5.856C36.2115 5.78133 36.1795 5.696 36.1795 5.6C36.1902 5.344 36.3075 5.056 36.5315 4.736C36.7662 4.40533 37.1235 4.12267 37.6035 3.888C38.0835 3.64267 38.6755 3.52 39.3795 3.52C40.5742 3.52 41.4328 3.80267 41.9555 4.368C42.4782 4.92267 42.7395 5.616 42.7395 6.448V11.632C42.7395 11.7387 42.7022 11.8293 42.6275 11.904C42.5635 11.968 42.4782 12 42.3715 12H41.6355C41.5288 12 41.4382 11.968 41.3635 11.904C41.2995 11.8293 41.2675 11.7387 41.2675 11.632V10.944C41.0328 11.2853 40.6915 11.5733 40.2435 11.808C39.7955 12.0427 39.2248 12.16 38.5315 12.16ZM38.8675 10.96C39.5608 10.96 40.1262 10.736 40.5635 10.288C41.0115 9.82933 41.2355 9.17333 41.2355 8.32V7.872L39.3795 8.144C38.6222 8.25067 38.0515 8.432 37.6675 8.688C37.2835 8.93333 37.0915 9.248 37.0915 9.632C37.0915 10.0587 37.2675 10.3893 37.6195 10.624C37.9715 10.848 38.3875 10.96 38.8675 10.96ZM48.2346 12.16C47.0933 12.16 46.1973 11.84 45.5466 11.2C44.9066 10.5493 44.5653 9.64267 44.5226 8.48L44.5066 7.84L44.5226 7.2C44.5653 6.03733 44.9066 5.136 45.5466 4.496C46.1973 3.84533 47.0933 3.52 48.2346 3.52C49.0026 3.52 49.6533 3.65867 50.1866 3.936C50.72 4.21333 51.1146 4.55467 51.3706 4.96C51.6373 5.36533 51.7813 5.77067 51.8026 6.176C51.8133 6.28267 51.7813 6.368 51.7066 6.432C51.632 6.496 51.5413 6.528 51.4346 6.528H50.6666C50.56 6.528 50.48 6.50667 50.4266 6.464C50.3733 6.42133 50.32 6.336 50.2666 6.208C50.0853 5.696 49.8293 5.33333 49.4986 5.12C49.168 4.896 48.752 4.784 48.2506 4.784C47.5893 4.784 47.0613 4.992 46.6666 5.408C46.2826 5.81333 46.0746 6.43733 46.0426 7.28L46.0266 7.856L46.0426 8.4C46.0746 9.25333 46.2826 9.88267 46.6666 10.288C47.0506 10.6933 47.5786 10.896 48.2506 10.896C48.752 10.896 49.168 10.7893 49.4986 10.576C49.8293 10.352 50.0853 9.984 50.2666 9.472C50.32 9.344 50.3733 9.25867 50.4266 9.216C50.48 9.16267 50.56 9.136 50.6666 9.136H51.4346C51.5413 9.136 51.632 9.17333 51.7066 9.248C51.7813 9.312 51.8133 9.39733 51.8026 9.504C51.7813 9.89867 51.6373 10.304 51.3706 10.72C51.1146 11.1253 50.72 11.4667 50.1866 11.744C49.664 12.0213 49.0133 12.16 48.2346 12.16ZM56.7857 12C55.1004 12 54.2577 11.0613 54.2577 9.184V4.96H53.0097C52.9031 4.96 52.8124 4.928 52.7377 4.864C52.6737 4.78933 52.6417 4.69867 52.6417 4.592V4.048C52.6417 3.94133 52.6737 3.856 52.7377 3.792C52.8124 3.71733 52.9031 3.68 53.0097 3.68H54.2577V1.008C54.2577 0.901333 54.2897 0.816 54.3537 0.752C54.4284 0.677333 54.5191 0.639999 54.6257 0.639999H55.3777C55.4844 0.639999 55.5697 0.677333 55.6337 0.752C55.7084 0.816 55.7457 0.901333 55.7457 1.008V3.68H57.7297C57.8364 3.68 57.9217 3.71733 57.9857 3.792C58.0604 3.856 58.0977 3.94133 58.0977 4.048V4.592C58.0977 4.69867 58.0604 4.78933 57.9857 4.864C57.9217 4.928 57.8364 4.96 57.7297 4.96H55.7457V9.072C55.7457 9.60533 55.8364 10.0107 56.0177 10.288C56.1991 10.5547 56.4977 10.688 56.9137 10.688H57.8897C57.9964 10.688 58.0817 10.7253 58.1457 10.8C58.2204 10.864 58.2577 10.9493 58.2577 11.056V11.632C58.2577 11.7387 58.2204 11.8293 58.1457 11.904C58.0817 11.968 57.9964 12 57.8897 12H56.7857ZM62.5028 12.16C61.7561 12.16 61.1268 12.0427 60.6148 11.808C60.1134 11.5627 59.7348 11.2853 59.4788 10.976C59.2334 10.6667 59.1108 10.4107 59.1108 10.208C59.1108 10.1013 59.1481 10.0213 59.2228 9.968C59.3081 9.904 59.3934 9.872 59.4788 9.872H60.1988C60.3054 9.872 60.4014 9.92533 60.4868 10.032C60.7428 10.3307 61.0201 10.5653 61.3188 10.736C61.6174 10.9067 62.0174 10.992 62.5188 10.992C63.0734 10.992 63.5214 10.8853 63.8628 10.672C64.2148 10.448 64.3908 10.144 64.3908 9.76C64.3908 9.504 64.3161 9.296 64.1668 9.136C64.0281 8.96533 63.7828 8.82133 63.4308 8.704C63.0894 8.576 62.5774 8.43733 61.8948 8.288C60.9668 8.08533 60.3054 7.792 59.9108 7.408C59.5268 7.024 59.3348 6.528 59.3348 5.92C59.3348 5.51467 59.4521 5.13067 59.6868 4.768C59.9321 4.39467 60.2841 4.096 60.7428 3.872C61.2121 3.63733 61.7721 3.52 62.4228 3.52C63.1054 3.52 63.6868 3.632 64.1668 3.856C64.6468 4.08 65.0041 4.34667 65.2388 4.656C65.4841 4.95467 65.6068 5.20533 65.6068 5.408C65.6068 5.504 65.5694 5.584 65.4948 5.648C65.4308 5.712 65.3508 5.744 65.2548 5.744H64.5828C64.4548 5.744 64.3481 5.69067 64.2628 5.584C64.0921 5.38133 63.9428 5.22667 63.8148 5.12C63.6974 5.00267 63.5214 4.90133 63.2868 4.816C63.0628 4.73067 62.7748 4.688 62.4228 4.688C61.9108 4.688 61.5161 4.8 61.2388 5.024C60.9614 5.23733 60.8228 5.52 60.8228 5.872C60.8228 6.096 60.8814 6.288 60.9988 6.448C61.1161 6.59733 61.3401 6.736 61.6708 6.864C62.0121 6.992 62.5028 7.12533 63.1428 7.264C64.1561 7.47733 64.8708 7.78667 65.2868 8.192C65.7134 8.58667 65.9268 9.09333 65.9268 9.712C65.9268 10.1707 65.7934 10.5867 65.5268 10.96C65.2601 11.3333 64.8654 11.6267 64.3428 11.84C63.8308 12.0533 63.2174 12.16 62.5028 12.16Z" fill="white"/>
</svg>
